<?xml version="1.0" encoding="UTF-8"?>
<svg id="artwork" xmlns="http://www.w3.org/2000/svg" xmlns:xlink="http://www.w3.org/1999/xlink" viewBox="0 0 64.08 64.08">
  <defs>
    <style>
      .cls-1 {
        fill: #fff;
      }

      .cls-2 {
        fill: url(#radial-gradient);
      }

      .cls-3 {
        fill: #0e4377;
      }
    </style>
    <radialGradient id="radial-gradient" cx="32.04" cy="32.04" fx="32.04" fy="32.04" r="32.04" gradientUnits="userSpaceOnUse">
      <stop offset="0" stop-color="#3381cc"/>
      <stop offset=".51" stop-color="#317fcb"/>
      <stop offset=".7" stop-color="#2a7bc9"/>
      <stop offset=".83" stop-color="#1e74c6"/>
      <stop offset=".94" stop-color="#0d6ac2"/>
      <stop offset="1" stop-color="#0062bf"/>
    </radialGradient>
  </defs>
  <circle class="cls-2" cx="32.04" cy="32.04" r="32.04"/>
  <g>
    <path id="Puzzle" class="cls-1" d="M41.1,26c1.46-.17,2.93.19,4.13,1.01.66.45,1.38.69,2.07.69h.12c.32,0,.58-.26.58-.58v-7.48c0-.79-.64-1.43-1.43-1.43h-7.48c-.91,0-1.65-.74-1.65-1.65v-.12c0-.91.3-1.84.87-2.67.69-1.01.97-2.18.83-3.41-.26-2.29-2.12-4.14-4.41-4.39-1.45-.16-2.84.28-3.92,1.25-1.06.95-1.67,2.31-1.67,3.74,0,1.04.32,2.04.92,2.89.54.76.82,1.7.82,2.72,0,.91-.74,1.65-1.65,1.65h-7.48c-.79,0-1.43.64-1.43,1.43v7.48c0,.91-.74,1.65-1.65,1.65h-.12c-.91,0-1.84-.3-2.67-.87-1.01-.69-2.18-.97-3.41-.83-2.29.26-4.14,2.12-4.39,4.41-.16,1.45.28,2.84,1.25,3.92.95,1.06,2.31,1.67,3.74,1.67,1.04,0,2.04-.32,2.89-.92.76-.54,1.61-.82,2.46-.82h.26c.91,0,1.65.74,1.65,1.65v7.48c0,.79.64,1.43,1.43,1.43h7.48c.91,0,1.65.74,1.65,1.65v.12c0,.91-.3,1.84-.87,2.67-.69,1-.97,2.18-.83,3.41.26,2.29,2.12,4.14,4.41,4.39,1.45.16,2.84-.28,3.92-1.25,1.06-.95,1.67-2.31,1.67-3.74,0-1.04-.32-2.04-.92-2.89-.54-.76-.82-1.7-.82-2.72,0-.91.74-1.65,1.65-1.65h7.48c.79,0,1.43-.64,1.43-1.43v-7.48c0-.32-.26-.58-.58-.58-.8,0-1.52.22-2.1.63-1.03.73-2.24,1.12-3.5,1.12-1.73,0-3.38-.74-4.53-2.02-1.15-1.29-1.7-3.01-1.51-4.74.31-2.78,2.55-5.03,5.33-5.35Z"/>
    <g>
      <path class="cls-3" d="M11.72,27.92c1.22-.14,2.4.15,3.41.83.84.57,1.76.87,2.67.87h.12c.7,0,1.29-.44,1.53-1.05-.23.12-.49.2-.76.2h-.12c-.91,0-1.84-.3-2.67-.87-1.01-.69-2.18-.97-3.41-.83-1.45.17-2.72.98-3.53,2.13.75-.68,1.7-1.15,2.76-1.27Z"/>
      <path class="cls-3" d="M20.99,19.07h7.48c.7,0,1.29-.44,1.53-1.05-.23.12-.49.2-.76.2h-7.48c-.63,0-1.16.41-1.35.98.18-.08.37-.12.58-.12Z"/>
      <path class="cls-3" d="M47.42,36.38c-.8,0-1.52.22-2.1.63-1.03.73-2.24,1.12-3.5,1.12-1.73,0-3.38-.74-4.53-2.02-1.15-1.29-1.7-3.01-1.51-4.74.12-1.06.52-2.05,1.13-2.88-1.03.97-1.74,2.27-1.9,3.74-.19,1.73.36,3.46,1.51,4.74,1.15,1.29,2.8,2.02,4.53,2.02,1.26,0,2.47-.39,3.5-1.12.58-.41,1.3-.63,2.1-.63.32,0,.58.26.58.58v7.48c0,.16-.03.3-.08.44.5-.22.85-.72.85-1.3v-7.48c0-.32-.26-.58-.58-.58Z"/>
      <path class="cls-3" d="M37.45,47.52c0-.21.04-.41.12-.59-.52.28-.89.82-.89,1.45,0,1.02.28,1.96.82,2.72.6.85.92,1.85.92,2.89s-.33,2.06-.93,2.9c.01,0,.02-.01.03-.02,1.06-.95,1.67-2.31,1.67-3.74,0-1.04-.32-2.04-.92-2.89-.54-.76-.82-1.7-.82-2.72Z"/>
      <path class="cls-3" d="M46.58,18.21h-7.48c-.91,0-1.65-.74-1.65-1.65v-.12c0-.91.3-1.84.87-2.67.69-1.01.97-2.18.83-3.41-.26-2.29-2.12-4.14-4.41-4.39-1.45-.16-2.84.28-3.92,1.25-.28.25-.52.53-.74.83,1.07-.94,2.45-1.38,3.88-1.22,2.29.25,4.15,2.1,4.41,4.39.14,1.22-.15,2.4-.83,3.41-.57.84-.87,1.76-.87,2.67v.12c0,.91.74,1.65,1.65,1.65h7.48c.79,0,1.43.64,1.43,1.43v7.2s.05,0,.07,0h.12c.32,0,.58-.26.58-.58v-7.48c0-.79-.64-1.43-1.43-1.43Z"/>
    </g>
  </g>
</svg>