<?xml version="1.0" encoding="UTF-8"?>
<svg id="artwork" xmlns="http://www.w3.org/2000/svg" viewBox="0 0 95.47 33.68">
  <defs>
    <style>
      .cls-1 {
        fill: #4d4d4d;
      }
    </style>
  </defs>
  <path class="cls-1" d="M0,17.34v-.09C0,8.22,6.81.82,16.57.82c5.99,0,9.58,2,12.53,4.9l-4.45,5.13c-2.45-2.22-4.95-3.59-8.13-3.59-5.36,0-9.21,4.45-9.21,9.9v.09c0,5.45,3.77,9.99,9.21,9.99,3.63,0,5.86-1.45,8.35-3.72l4.45,4.49c-3.27,3.5-6.9,5.67-13.03,5.67C6.95,33.68,0,26.47,0,17.34Z"/>
  <path class="cls-1" d="M33.37,0h6.9v33.14h-6.9V0Z"/>
  <path class="cls-1" d="M45.44,24.56v-15.75h6.9v13.57c0,3.27,1.54,4.95,4.18,4.95s4.31-1.68,4.31-4.95v-13.57h6.9v24.33h-6.9v-3.45c-1.59,2.04-3.63,3.9-7.13,3.9-5.22,0-8.26-3.45-8.26-9.03Z"/>
  <path class="cls-1" d="M71.59,21.11v-.09c0-6.95,4.95-12.67,12.03-12.67,8.13,0,11.85,6.31,11.85,13.21,0,.54-.04,1.18-.09,1.82h-16.93c.68,3.13,2.86,4.77,5.95,4.77,2.32,0,4-.73,5.9-2.5l3.95,3.5c-2.27,2.81-5.54,4.54-9.94,4.54-7.31,0-12.71-5.13-12.71-12.57ZM88.75,19.07c-.41-3.09-2.22-5.18-5.13-5.18s-4.72,2.04-5.27,5.18h10.4Z"/>
</svg>