<?xml version="1.0" encoding="UTF-8"?>
<svg id="artwork" xmlns="http://www.w3.org/2000/svg" xmlns:xlink="http://www.w3.org/1999/xlink" viewBox="0 0 95.47 111.25">
  <defs>
    <style>
      .cls-1 {
        fill: #fff;
      }

      .cls-2 {
        fill: url(#radial-gradient);
      }

      .cls-3 {
        fill: #7da1db;
      }

      .cls-4 {
        fill: #bcbcbc;
      }
    </style>
    <radialGradient id="radial-gradient" cx="51.15" cy="32.04" fx="51.15" fy="32.04" r="32.04" gradientUnits="userSpaceOnUse">
      <stop offset="0" stop-color="#b1c6e9"/>
      <stop offset="1" stop-color="#7da1db"/>
    </radialGradient>
  </defs>
  <g>
    <path class="cls-2" d="M66.39,55.81c1.91-1.7,4.38-2.64,6.94-2.64h0c.59,0,1.18.06,1.76.16,5.04-5.66,8.11-13.12,8.11-21.29C83.19,14.34,68.85,0,51.15,0S19.11,14.34,19.11,32.04s14.34,32.04,32.04,32.04c4.21,0,8.22-.82,11.9-2.29.4-2.23,1.51-4.36,3.33-5.98Z"/>
    <g>
      <path class="cls-4" d="M71.04,64.46c-.63-.63-.95-1.46-.95-2.29s.32-1.65.95-2.29c.63-.63,1.46-.95,2.29-.95s1.65.32,2.29.95c.63.63.95,1.46.95,2.29s-.32,1.65-.95,2.29l-1.07,1.07h-.34v-3.94c-.07-.03-.14-.08-.19-.13h0c-.12-.12-.2-.3-.2-.48s.08-.36.2-.48h0c.12-.12.29-.2.48-.2s.36.08.48.2h0c.12.12.2.3.2.48s-.08.36-.2.48c-.06.06-.12.1-.19.13v2.87l.41-.41c.52-.52.78-1.19.78-1.87s-.26-1.35-.78-1.87c-.52-.52-1.19-.78-1.87-.78s-1.35.26-1.87.78c-.52.52-.78,1.19-.78,1.87s.26,1.35.78,1.87l.41.41v-.58c-.07-.03-.14-.08-.19-.13h0c-.12-.12-.2-.3-.2-.48s.08-.36.2-.48h0c.12-.12.29-.2.48-.2s.36.08.48.2h0c.12.12.2.3.2.48s-.08.36-.2.48c-.06.06-.12.1-.19.13v1.66h-.34l-1.07-1.07h0ZM74.65,60.81h0s-.09-.06-.15-.06-.11.02-.15.06c-.04.04-.06.09-.06.15s.02.11.06.15h0s.09.06.15.06.11-.02.15-.06c.04-.04.06-.09.06-.15s-.02-.11-.06-.15h0ZM72.31,63.1h0s-.09-.06-.15-.06-.11.02-.15.06c-.04.04-.06.09-.06.15s.02.11.06.15h0s.09.06.15.06.11-.02.15-.06c.04-.04.06-.09.06-.15s-.02-.11-.06-.15h0ZM73.33,61.42c.19,0,.36.08.48.2h0c.12.12.2.3.2.48s-.08.36-.2.48c-.06.06-.12.1-.19.13v2.8h-.59v-2.8c-.07-.03-.14-.08-.19-.13h0c-.12-.12-.2-.3-.2-.48s.08-.36.2-.48h0c.12-.12.29-.2.48-.2ZM73.48,61.95h0s-.09-.06-.15-.06-.11.02-.15.06c-.04.04-.06.09-.06.15s.02.11.06.15h0s.09.06.15.06.11-.02.15-.06c.04-.04.06-.09.06-.15s-.02-.11-.06-.15h0Z"/>
      <path class="cls-4" d="M72.07,65.91h2.52c.17,0,.3.13.3.3h0c0,.16-.14.3-.3.3h-2.52c-.17,0-.3-.13-.3-.3h0c0-.16.14-.3.3-.3Z"/>
      <path class="cls-4" d="M72.24,66.8h2.17c.14,0,.26.13.26.3h0c0,.16-.12.3-.26.3h-2.17c-.14,0-.26-.13-.26-.3h0c0-.16.12-.3.26-.3Z"/>
      <path class="cls-4" d="M72.63,67.71h1.4c-.06.34-.35.59-.7.59s-.64-.25-.7-.59Z"/>
    </g>
    <path class="cls-3" d="M79.67,57.98c-1.61-1.81-3.92-2.85-6.35-2.85-2.08,0-4.08.76-5.64,2.14-2.68,2.38-3.49,6.1-2.32,9.28-6.51,2.61-13.64,3.32-20.69,1.98-9.74-1.86-18.17-7.4-23.74-15.59-6.03-8.88-7.92-19.93-5.19-30.32.16-.6-.2-1.22-.8-1.37-.6-.16-1.22.2-1.37.8-2.9,11.02-.9,22.74,5.5,32.16,5.91,8.7,14.85,14.57,25.17,16.54,2.49.47,4.98.71,7.46.71,5.06,0,10.03-.99,14.7-2.9.17.24.36.48.56.71,1.61,1.81,3.92,2.85,6.35,2.85,2.08,0,4.08-.76,5.63-2.14,1.69-1.51,2.7-3.58,2.84-5.84.13-2.26-.62-4.44-2.13-6.14ZM78.38,67.39c-.25.34-.54.65-.86.94-.28.25-.58.47-.89.66-.03.02-.06.04-.08.05-.3.18-.61.32-.92.44-.05.02-.09.04-.14.05-.31.11-.63.2-.95.26-.05.01-.11.02-.16.03-.32.05-.64.08-.97.09-.08,0-.16,0-.24,0-.12,0-.23,0-.35-.02-.09,0-.19-.02-.28-.03-.12-.01-.23-.03-.35-.05-.09-.02-.18-.04-.28-.06-.11-.03-.23-.06-.34-.09-.09-.03-.18-.05-.27-.08-.11-.04-.22-.08-.33-.13-.09-.03-.17-.07-.26-.11-.11-.05-.22-.11-.33-.17-.08-.04-.16-.08-.24-.13-.11-.07-.22-.14-.33-.21-.07-.05-.14-.09-.21-.14-.12-.09-.23-.18-.34-.28-.06-.05-.11-.09-.17-.14-.16-.15-.32-.31-.47-.48-1.3-1.46-1.79-3.36-1.51-5.16.03-.2.07-.4.12-.59.3-1.18.94-2.28,1.92-3.14,0,0,0,0,0,0,.28-.25.58-.47.89-.66.03-.02.06-.04.09-.06.3-.18.61-.32.92-.44.05-.02.09-.04.14-.05.31-.11.63-.2.95-.26.05-.01.11-.02.16-.03.32-.05.64-.08.97-.09.08,0,.16,0,.24,0,.12,0,.23,0,.35.02.09,0,.19.02.28.03.12.01.23.03.35.05.09.02.18.04.28.06.11.03.23.06.34.09.09.03.18.05.27.08.11.04.22.08.33.13.09.03.17.07.26.11.11.05.22.11.33.16.08.04.16.08.24.13.11.07.22.14.33.21.07.05.14.09.21.14.12.09.23.18.34.28.06.05.11.09.17.14.16.15.32.31.47.48,1.01,1.14,1.53,2.54,1.59,3.95.05,1.41-.37,2.83-1.25,4Z"/>
    <g>
      <path id="Puzzle" class="cls-1" d="M60.22,26c1.46-.17,2.93.19,4.13,1.01.66.45,1.38.69,2.07.69h.12c.32,0,.58-.26.58-.58v-7.48c0-.79-.64-1.43-1.43-1.43h-7.48c-.91,0-1.65-.74-1.65-1.65v-.12c0-.91.3-1.84.87-2.67.69-1.01.97-2.18.83-3.41-.26-2.29-2.12-4.14-4.41-4.39-1.45-.16-2.84.28-3.92,1.25-1.06.95-1.67,2.31-1.67,3.74,0,1.04.32,2.04.92,2.89.54.76.82,1.7.82,2.72,0,.91-.74,1.65-1.65,1.65h-7.48c-.79,0-1.43.64-1.43,1.43v7.48c0,.91-.74,1.65-1.65,1.65h-.12c-.91,0-1.84-.3-2.67-.87-1.01-.69-2.18-.97-3.41-.83-2.29.26-4.14,2.12-4.39,4.41-.16,1.45.28,2.84,1.25,3.92.95,1.06,2.31,1.67,3.74,1.67,1.04,0,2.04-.32,2.89-.92.76-.54,1.61-.82,2.46-.82h.26c.91,0,1.65.74,1.65,1.65v7.48c0,.79.64,1.43,1.43,1.43h7.48c.91,0,1.65.74,1.65,1.65v.12c0,.91-.3,1.84-.87,2.67-.69,1-.97,2.18-.83,3.41.26,2.29,2.12,4.14,4.41,4.39,1.45.16,2.84-.28,3.92-1.25,1.06-.95,1.67-2.31,1.67-3.74,0-1.04-.32-2.04-.92-2.89-.54-.76-.82-1.7-.82-2.72,0-.91.74-1.65,1.65-1.65h7.48c.79,0,1.43-.64,1.43-1.43v-7.48c0-.32-.26-.58-.58-.58-.8,0-1.52.22-2.1.63-1.03.73-2.24,1.12-3.5,1.12-1.73,0-3.38-.74-4.53-2.02-1.15-1.29-1.7-3.01-1.51-4.74.31-2.78,2.55-5.03,5.33-5.35Z"/>
      <g>
        <path class="cls-4" d="M30.84,27.92c1.22-.14,2.4.15,3.41.83.84.57,1.76.87,2.67.87h.12c.7,0,1.29-.44,1.53-1.05-.23.12-.49.2-.76.2h-.12c-.91,0-1.84-.3-2.67-.87-1.01-.69-2.18-.97-3.41-.83-1.45.17-2.72.98-3.53,2.13.75-.68,1.7-1.15,2.76-1.27Z"/>
        <path class="cls-4" d="M40.11,19.07h7.48c.7,0,1.29-.44,1.53-1.05-.23.12-.49.2-.76.2h-7.48c-.63,0-1.16.41-1.35.98.18-.08.37-.12.58-.12Z"/>
        <path class="cls-4" d="M66.53,36.38c-.8,0-1.52.22-2.1.63-1.03.73-2.24,1.12-3.5,1.12-1.73,0-3.38-.74-4.53-2.02-1.15-1.29-1.7-3.01-1.51-4.74.12-1.06.52-2.05,1.13-2.88-1.03.97-1.74,2.27-1.9,3.74-.19,1.73.36,3.46,1.51,4.74,1.15,1.29,2.8,2.02,4.53,2.02,1.26,0,2.47-.39,3.5-1.12.58-.41,1.3-.63,2.1-.63.32,0,.58.26.58.58v7.48c0,.16-.03.3-.08.44.5-.22.85-.72.85-1.3v-7.48c0-.32-.26-.58-.58-.58Z"/>
        <path class="cls-4" d="M56.56,47.52c0-.21.04-.41.12-.59-.52.28-.89.82-.89,1.45,0,1.02.28,1.96.82,2.72.6.85.92,1.85.92,2.89s-.33,2.06-.93,2.9c.01,0,.02-.01.03-.02,1.06-.95,1.67-2.31,1.67-3.74,0-1.04-.32-2.04-.92-2.89-.54-.76-.82-1.7-.82-2.72Z"/>
        <path class="cls-4" d="M65.69,18.21h-7.48c-.91,0-1.65-.74-1.65-1.65v-.12c0-.91.3-1.84.87-2.67.69-1.01.97-2.18.83-3.41-.26-2.29-2.12-4.14-4.41-4.39-1.45-.16-2.84.28-3.92,1.25-.28.25-.52.53-.74.83,1.07-.94,2.45-1.38,3.88-1.22,2.29.25,4.15,2.1,4.41,4.39.14,1.22-.15,2.4-.83,3.41-.57.84-.87,1.76-.87,2.67v.12c0,.91.74,1.65,1.65,1.65h7.48c.79,0,1.43.64,1.43,1.43v7.2s.05,0,.07,0h.12c.32,0,.58-.26.58-.58v-7.48c0-.79-.64-1.43-1.43-1.43Z"/>
      </g>
    </g>
  </g>
  <g>
    <path class="cls-4" d="M0,94.91v-.09c0-9.03,6.81-16.43,16.57-16.43,5.99,0,9.58,2,12.53,4.9l-4.45,5.13c-2.45-2.22-4.95-3.59-8.13-3.59-5.36,0-9.21,4.45-9.21,9.9v.09c0,5.45,3.77,9.99,9.21,9.99,3.63,0,5.86-1.45,8.35-3.72l4.45,4.49c-3.27,3.5-6.9,5.67-13.03,5.67-9.35,0-16.3-7.22-16.3-16.34Z"/>
    <path class="cls-4" d="M33.37,77.57h6.9v33.14h-6.9v-33.14Z"/>
    <path class="cls-4" d="M45.44,102.12v-15.75h6.9v13.57c0,3.27,1.54,4.95,4.18,4.95s4.31-1.68,4.31-4.95v-13.57h6.9v24.33h-6.9v-3.45c-1.59,2.04-3.63,3.9-7.13,3.9-5.22,0-8.26-3.45-8.26-9.03Z"/>
    <path class="cls-4" d="M71.59,98.67v-.09c0-6.95,4.95-12.67,12.03-12.67,8.13,0,11.85,6.31,11.85,13.21,0,.54-.04,1.18-.09,1.82h-16.93c.68,3.13,2.86,4.77,5.95,4.77,2.32,0,4-.73,5.9-2.5l3.95,3.5c-2.27,2.81-5.54,4.54-9.94,4.54-7.31,0-12.71-5.13-12.71-12.57ZM88.75,96.63c-.41-3.09-2.22-5.18-5.13-5.18s-4.72,2.04-5.27,5.18h10.4Z"/>
  </g>
</svg>